<svg width="313.48378906249997px" height="120.8312286376953px" xmlns="http://www.w3.org/2000/svg" viewBox="93.25810546875002 14.584385681152348 313.48378906249997 120.8312286376953" style="background: rgba(0, 0, 0, 0);" preserveAspectRatio="xMidYMid"><defs><filter id="editing-hole" x="-100%" y="-100%" width="300%" height="300%"><feFlood flood-color="#000" result="black"></feFlood><feMorphology operator="dilate" radius="2" in="SourceGraphic" result="erode"></feMorphology><feGaussianBlur in="erode" stdDeviation="4" result="blur"></feGaussianBlur><feOffset in="blur" dx="2" dy="2" result="offset"></feOffset><feComposite operator="atop" in="offset" in2="black" result="merge"></feComposite><feComposite operator="in" in="merge" in2="SourceGraphic" result="inner-shadow"></feComposite></filter></defs><g filter="url(#editing-hole)"><g transform="translate(142.304689347744, 97.37656211853027)"><path d="M27.84-9.86L27.84-9.86L27.84-9.86Q29.06-8.32 29.06-5.34L29.06-5.34L29.06-5.34Q29.06-2.37 26.78-0.54L26.78-0.54L26.78-0.54Q24.51 1.28 20.54 1.28L20.54 1.28L20.54 1.28Q18.24 1.28 14.66 0.77L14.66 0.77L14.66 0.77Q7.62-0.32 5.60-0.32L5.60-0.32L5.60-0.32Q3.58-0.32 2.75-0.22L2.75-0.22L2.75-0.22Q1.92-0.13 0.58 0L0.58 0L8.32-42.24L22.34-42.24L15.94-7.04L15.94-7.04Q16.77-6.91 17.54-6.91L17.54-6.91L19.14-6.91L19.14-6.91Q24.51-6.91 27.84-9.86ZM46.59 0L32.64 0L40.77-42.24L54.85-42.24L46.59 0ZM69.31 0L55.68 0L62.98-38.91L63.68-42.24L77.38-42.24L69.31 0ZM95.30-3.78L95.30-3.78L95.30-3.78Q93.57 1.28 86.91 1.28L86.91 1.28L86.91 1.28Q81.98 1.28 78.59-4.61L78.59-4.61L78.59-4.61Q75.14-10.50 74.50-20.10L74.50-20.10L74.50-20.10Q81.54-32.96 86.40-38.27L86.40-38.27L86.40-38.27Q91.07-43.33 95.94-43.33L95.94-43.33L95.94-43.33Q98.56-43.33 100.45-41.92L100.45-41.92L100.45-41.92Q102.34-40.51 102.78-38.27L102.78-38.27L102.78-38.27Q100.61-37.38 99.58-36.67L99.58-36.67L99.58-36.67Q97.02-34.75 93.57-30.46L93.57-30.46L87.74-23.49L87.74-23.49Q86.34-21.82 85.76-21.06L85.76-21.06L85.76-21.06Q86.72-15.68 89.60-10.37L89.60-10.37L89.60-10.37Q92.35-5.31 95.30-3.78ZM128.06-9.86L128.06-9.86L128.06-9.86Q129.28-8.32 129.28-5.82L129.28-5.82L129.28-5.82Q129.28-2.37 126.72-0.54L126.72-0.54L126.72-0.54Q124.16 1.28 120.13 1.28L120.13 1.28L120.13 1.28Q117.82 1.28 114.30 0.77L114.30 0.77L114.30 0.77Q107.39-0.32 105.28-0.32L105.28-0.32L105.28-0.32Q103.17-0.32 102.34-0.22L102.34-0.22L102.34-0.22Q101.50-0.13 100.16 0L100.16 0L108.03-42.24L135.62-42.24L135.62-42.24Q135.62-38.34 133.73-36.29L133.73-36.29L133.73-36.29Q131.84-34.24 128.13-34.24L128.13-34.24L128.13-34.24Q124.42-34.24 120.64-35.97L120.64-35.97L118.66-24.77L130.05-24.77L130.05-24.77Q130.05-21.38 128.38-19.49L128.38-19.49L128.38-19.49Q126.72-17.60 123.94-17.60L123.94-17.60L123.94-17.60Q121.15-17.60 119.42-18.24L119.42-18.24L119.42-18.24Q117.70-18.88 117.50-19.07L117.50-19.07L115.20-6.98L115.20-6.98Q116.74-6.78 119.62-6.78L119.62-6.78L119.62-6.78Q124.54-6.78 128.06-9.86ZM148.29 0L134.59 0L142.40-42.05L142.40-42.05Q148.74-42.75 157.98-42.75L157.98-42.75L157.98-42.75Q167.23-42.75 171.52-40.06L171.52-40.06L171.52-40.06Q175.81-37.38 175.81-31.97L175.81-31.97L175.81-31.97Q175.81-26.56 173.02-23.17L173.02-23.17L173.02-23.17Q170.24-19.78 165.44-18.69L165.44-18.69L165.44-18.69Q166.53-13.38 169.02-9.09L169.02-9.09L169.02-9.09Q171.33-5.06 174.02-3.78L174.02-3.78L174.02-3.78Q173.06-1.09 171.10 0.10L171.10 0.10L171.10 0.10Q169.15 1.28 166.37 1.28L166.37 1.28L166.37 1.28Q163.58 1.28 161.41-0.35L161.41-0.35L161.41-0.35Q159.23-1.98 157.50-4.99L157.50-4.99L157.50-4.99Q153.86-11.52 153.47-21.82L153.47-21.82L153.92-21.82L153.92-21.82Q158.66-21.95 161.02-24.42L161.02-24.42L161.02-24.42Q163.39-26.88 163.39-32.06L163.39-32.06L163.39-32.06Q163.39-38.53 157.95-38.78L157.95-38.78L156.54-38.78L156.54-38.78Q155.97-38.78 155.65-38.72L155.65-38.72L148.29 0ZM203.71-29.57L203.71-29.57L203.71-29.57Q204.67-31.49 204.67-33.28L204.67-33.28L204.67-33.28Q204.67-35.07 204.48-36.06L204.48-36.06L204.48-36.06Q204.29-37.06 203.84-37.82L203.84-37.82L203.84-37.82Q202.88-39.49 200.96-39.49L200.96-39.49L200.96-39.49Q198.59-39.49 196.67-37.76L196.67-37.76L196.67-37.76Q194.62-35.97 194.62-33.15L194.62-33.15L194.62-33.15Q194.62-31.36 195.87-29.98L195.87-29.98L195.87-29.98Q197.12-28.61 199.04-27.33L199.04-27.33L199.04-27.33Q200.96-26.05 203.14-24.77L203.14-24.77L203.14-24.77Q205.31-23.49 207.23-21.95L207.23-21.95L207.23-21.95Q211.65-18.43 211.65-13.70L211.65-13.70L211.65-13.70Q211.65-10.50 209.95-7.78L209.95-7.78L209.95-7.78Q208.26-5.06 205.44-3.07L205.44-3.07L205.44-3.07Q199.30 1.28 191.17 1.28L191.17 1.28L191.17 1.28Q184.58 1.28 181.18-0.86L181.18-0.86L181.18-0.86Q177.79-3.01 177.79-6.27L177.79-6.27L177.79-6.27Q177.79-12.10 182.34-13.57L182.34-13.57L182.34-13.57Q183.62-14.02 185.57-14.02L185.57-14.02L185.57-14.02Q187.52-14.02 189.76-13.18L189.76-13.18L189.76-13.18Q188.74-10.56 188.74-8.19L188.74-8.19L188.74-8.19Q188.74-3.07 192.38-3.07L192.38-3.07L192.38-3.07Q194.75-3.07 196.70-4.80L196.70-4.80L196.70-4.80Q198.66-6.53 198.66-8.48L198.66-8.48L198.66-8.48Q198.66-10.43 197.41-11.84L197.41-11.84L197.41-11.84Q196.16-13.25 194.30-14.37L194.30-14.37L194.30-14.37Q192.45-15.49 190.30-16.58L190.30-16.58L190.30-16.58Q188.16-17.66 186.30-19.20L186.30-19.20L186.30-19.20Q181.95-22.72 181.95-28.35L181.95-28.35L181.95-28.35Q181.95-32 183.74-34.85L183.74-34.85L183.74-34.85Q185.54-37.70 188.42-39.62L188.42-39.62L188.42-39.62Q194.18-43.52 201.25-43.52L201.25-43.52L201.25-43.52Q208.32-43.52 211.74-41.41L211.74-41.41L211.74-41.41Q215.17-39.30 215.17-35.71L215.17-35.71L215.17-35.71Q215.17-32.58 212.74-30.59L212.74-30.59L212.74-30.59Q210.62-28.93 208.06-28.93L208.06-28.93L208.06-28.93Q205.50-28.93 203.71-29.57Z" fill="#ccc"></path></g></g><style>text {
  font-size: 64px;
  font-family: Arial Black;
  dominant-baseline: central;
  text-anchor: middle;
}</style></svg>